<mxfile host="app.diagrams.net" modified="2024-05-31T00:02:45.533Z" agent="Mozilla/5.0 (Windows NT 10.0; Win64; x64) AppleWebKit/537.36 (KHTML, like Gecko) Chrome/125.0.0.0 Safari/537.36" version="24.4.10" etag="0ImnwhoLpjCNgsWK-sZ3" type="github">
  <diagram name="Page-1" id="RrPEeyGKf9GaZPRZOBHh">
    <mxGraphModel>
      <root>
        <mxCell id="0" />
        <mxCell id="1" parent="0" />
        <mxCell id="2" value="Start" style="ellipse;aspect=fixed;strokeWidth=2;whiteSpace=wrap;" vertex="1" parent="1">
          <mxGeometry x="235" width="51" height="51" as="geometry" />
        </mxCell>
        <mxCell id="3" value="Choice 1" style="rhombus;strokeWidth=2;whiteSpace=wrap;" vertex="1" parent="1">
          <mxGeometry x="62" y="101" width="110" height="110" as="geometry" />
        </mxCell>
        <mxCell id="4" value="Choice 2" style="rhombus;strokeWidth=2;whiteSpace=wrap;" vertex="1" parent="1">
          <mxGeometry x="348" y="101" width="110" height="110" as="geometry" />
        </mxCell>
        <mxCell id="5" value="Outcome 1" style="whiteSpace=wrap;strokeWidth=2;" vertex="1" parent="1">
          <mxGeometry y="261" width="93" height="34" as="geometry" />
        </mxCell>
        <mxCell id="6" value="Outcome 2" style="whiteSpace=wrap;strokeWidth=2;" vertex="1" parent="1">
          <mxGeometry x="143" y="261" width="93" height="34" as="geometry" />
        </mxCell>
        <mxCell id="7" value="Outcome 3" style="whiteSpace=wrap;strokeWidth=2;" vertex="1" parent="1">
          <mxGeometry x="285" y="261" width="93" height="34" as="geometry" />
        </mxCell>
        <mxCell id="8" value="Outcome 4" style="whiteSpace=wrap;strokeWidth=2;" vertex="1" parent="1">
          <mxGeometry x="428" y="261" width="93" height="34" as="geometry" />
        </mxCell>
        <mxCell id="9" value="" style="curved=1;startArrow=none;endArrow=block;exitX=0.00015318627450980392;exitY=0.6718443652602656;entryX=0.5053977272727272;entryY=-0.003053977272727273;" edge="1" parent="1" source="2" target="3">
          <mxGeometry relative="1" as="geometry">
            <Array as="points">
              <mxPoint x="118" y="76" />
            </Array>
          </mxGeometry>
        </mxCell>
        <mxCell id="10" value="" style="curved=1;startArrow=none;endArrow=block;exitX=0.9935661764705882;exitY=0.6720314783694131;entryX=0.4993963068181818;entryY=-0.003053977272727273;" edge="1" parent="1" source="2" target="4">
          <mxGeometry relative="1" as="geometry">
            <Array as="points">
              <mxPoint x="403" y="76" />
            </Array>
          </mxGeometry>
        </mxCell>
        <mxCell id="11" value="" style="curved=1;startArrow=none;endArrow=block;exitX=0.05937772711768306;exitY=0.9999289772727272;entryX=0.49781586021505375;entryY=-0.00022977941176470588;" edge="1" parent="1" source="3" target="5">
          <mxGeometry relative="1" as="geometry">
            <Array as="points">
              <mxPoint x="46" y="236" />
            </Array>
          </mxGeometry>
        </mxCell>
        <mxCell id="12" value="" style="curved=1;startArrow=none;endArrow=block;exitX=0.9514177274277715;exitY=0.9999289772727272;entryX=0.4934475806451613;entryY=-0.00022977941176470588;" edge="1" parent="1" source="3" target="6">
          <mxGeometry relative="1" as="geometry">
            <Array as="points">
              <mxPoint x="189" y="236" />
            </Array>
          </mxGeometry>
        </mxCell>
        <mxCell id="13" value="" style="curved=1;startArrow=none;endArrow=block;exitX=0.05242327247477192;exitY=0.9999289772727272;entryX=0.4998319892473118;entryY=-0.00022977941176470588;" edge="1" parent="1" source="4" target="7">
          <mxGeometry relative="1" as="geometry">
            <Array as="points">
              <mxPoint x="331" y="236" />
            </Array>
          </mxGeometry>
        </mxCell>
        <mxCell id="14" value="" style="curved=1;startArrow=none;endArrow=block;exitX=0.9463693411615918;exitY=0.9999289772727272;entryX=0.4987399193548387;entryY=-0.00022977941176470588;" edge="1" parent="1" source="4" target="8">
          <mxGeometry relative="1" as="geometry">
            <Array as="points">
              <mxPoint x="474" y="236" />
            </Array>
          </mxGeometry>
        </mxCell>
      </root>
    </mxGraphModel>
  </diagram>
</mxfile>
